<?xml version="1.0" encoding="UTF-8"?>
<svg width="42px" height="58px" viewBox="0 0 42 58" version="1.1" xmlns="http://www.w3.org/2000/svg" xmlns:xlink="http://www.w3.org/1999/xlink">
    <title>Logotype - black</title>
    <g id="Logotype---black" stroke="none" stroke-width="1" fill="none" fill-rule="evenodd">
        <rect id="Rectangle" fill="#FFFFFF" x="-1449" y="-1116" width="1818" height="2795"></rect>
        <g id="hex-lab" transform="translate(0.000000, -71.000000)" fill="#000000">
            <g transform="translate(0.000000, 71.000000)">
                <polygon id="Path" points="8.55920114 40.6134094 8.55920114 27.8601997 20.5420827 21.2039943 32.5249643 27.8601997 32.5249643 40.6134094 20.5420827 47.2696148"></polygon>
                <path d="M27.6747504,15.3751783 L27.6747504,5.42082739 L31.3837375,5.42082739 L31.3837375,0 L9.70042796,0 L9.70042796,5.42082739 L13.4094151,5.42082739 L13.4094151,15.3751783 L0,22.8245364 L0,45.6490728 L20.5420827,57.0613409 L41.0841655,45.6490728 L41.0841655,22.8245364 L27.6747504,15.3751783 Z M11.4122682,3.70898716 L11.4122682,1.71184023 L29.6718973,1.71184023 L29.6718973,3.70898716 L11.4122682,3.70898716 Z M39.3723252,44.6419401 L20.5420827,55.1041369 L1.71184023,44.6419401 L1.71184023,23.831669 L14.2396576,16.8701854 L15.1212553,16.382311 L15.1212553,5.42082739 L25.9629101,5.42082739 L25.9629101,16.382311 L26.8445078,16.8701854 L39.3723252,23.831669 L39.3723252,44.6419401 Z" id="Shape" fill-rule="nonzero"></path>
                <circle id="Oval" cx="20.1141227" cy="14.6932953" r="2.13980029"></circle>
                <circle id="Oval" cx="17.831669" cy="8.13124108" r="1.28388017"></circle>
                <circle id="Oval" cx="22.8958631" cy="8.77318117" r="1"></circle>
                <circle id="Oval" cx="25.9629101" cy="20.8273894" r="1"></circle>
                <circle id="Oval" cx="12.8388017" cy="23.1098431" r="1"></circle>
            </g>
        </g>
    </g>
</svg>